<?xml version="1.0" encoding="UTF-8"?>
<svg width="14px" height="14px" viewBox="0 0 14 14" version="1.1" xmlns="http://www.w3.org/2000/svg" xmlns:xlink="http://www.w3.org/1999/xlink">
    <!-- Generator: Sketch 64 (93537) - https://sketch.com -->
    <title>mouse coordinates</title>
    <desc>Created with Sketch.</desc>
    <g id="Icons" stroke="none" stroke-width="1" fill="none" fill-rule="evenodd">
        <g id="mouse-coordinates" fill="#FFFFFF" fill-rule="nonzero">
            <path d="M12.5,0 L1.5,0 C0.671875,0 0,0.671875 0,1.5 L0,12.5 C0,13.328125 0.671875,14 1.5,14 L12.5,14 C13.328125,14 14,13.328125 14,12.5 L14,1.5 C14,0.671875 13.328125,0 12.5,0 Z M13,12.5 C13,12.775 12.775,13 12.5,13 L1.5,13 C1.225,13 1,12.775 1,12.5 L1,1.5 C1,1.225 1.225,1 1.5,1 L12.5,1 C12.775,1 13,1.225 13,1.5 L13,12.5 Z" id="Shape"></path>
            <path d="M9.72170193,8.35686104 L8.06413985,8.35686104 L8.93649901,10.5702874 C8.99726462,10.7237379 8.92782713,10.8957918 8.78893654,10.9608959 L8.02073361,11.3096425 C7.87753052,11.3747466 7.71693681,11.3003489 7.65617121,11.1515371 L6.82721829,9.04971544 L5.47309363,10.5005284 C5.29264055,10.6938388 5,10.5448155 5,10.2912837 L5,3.29783089 C5,3.03090396 5.31126555,2.90077709 5.47307801,3.08858622 L9.91701438,7.85000914 C10.0962643,8.0319589 9.96399875,8.35686104 9.72170193,8.35686104 L9.72170193,8.35686104 Z" id="Path"></path>
        </g>
    </g>
</svg>