<?xml version="1.0" encoding="UTF-8"?>
<svg width="9px" height="12px" viewBox="0 0 9 12" version="1.1" xmlns="http://www.w3.org/2000/svg" xmlns:xlink="http://www.w3.org/1999/xlink">
    <!-- Generator: Sketch 62 (91390) - https://sketch.com -->
    <title>nomenclature</title>
    <desc>Created with Sketch.</desc>
    <g id="Icons" stroke="none" stroke-width="1" fill="none" fill-rule="evenodd">
        <g id="Layer-Icons" transform="translate(-189.000000, -352.000000)" fill="#FFFFFF" fill-rule="nonzero">
            <g id="nomenclature" transform="translate(189.000000, 352.000000)">
                <path d="M4.03753125,11.7578906 C0.632109375,6.82103906 0,6.31436719 0,4.5 C0,2.01471094 2.01471094,0 4.5,0 C6.98528906,0 9,2.01471094 9,4.5 C9,6.31436719 8.36789062,6.82103906 4.96246875,11.7578906 C4.73899219,12.0807187 4.26098437,12.0806953 4.03753125,11.7578906 Z M4.5,6.375 C5.53553906,6.375 6.375,5.53553906 6.375,4.5 C6.375,3.46446094 5.53553906,2.625 4.5,2.625 C3.46446094,2.625 2.625,3.46446094 2.625,4.5 C2.625,5.53553906 3.46446094,6.375 4.5,6.375 Z" id="Shape"></path>
            </g>
        </g>
    </g>
</svg>